<?xml version="1.0" encoding="UTF-8" standalone="no"?>
<!-- Created with Inkscape (http://www.inkscape.org/) -->

<svg
   xmlns:dc="http://purl.org/dc/elements/1.1/"
   xmlns:cc="http://creativecommons.org/ns#"
   xmlns:rdf="http://www.w3.org/1999/02/22-rdf-syntax-ns#"
   xmlns:svg="http://www.w3.org/2000/svg"
   xmlns="http://www.w3.org/2000/svg"
   xmlns:sodipodi="http://sodipodi.sourceforge.net/DTD/sodipodi-0.dtd"
   xmlns:inkscape="http://www.inkscape.org/namespaces/inkscape"
   width="210mm"
   height="297mm"
   viewBox="0 0 210 297"
   version="1.1"
   id="svg8"
   inkscape:version="0.92.4 (5da689c313, 2019-01-14)"
   sodipodi:docname="logo_yamil.svg">
  <defs
     id="defs2" />
  <sodipodi:namedview
     id="base"
     pagecolor="#ffffff"
     bordercolor="#666666"
     borderopacity="1.0"
     inkscape:pageopacity="0.0"
     inkscape:pageshadow="2"
     inkscape:zoom="0.35"
     inkscape:cx="-64.285714"
     inkscape:cy="560"
     inkscape:document-units="mm"
     inkscape:current-layer="layer1"
     showgrid="false"
     inkscape:window-width="1920"
     inkscape:window-height="1017"
     inkscape:window-x="1272"
     inkscape:window-y="-8"
     inkscape:window-maximized="1" />
  <metadata
     id="metadata5">
    <rdf:RDF>
      <cc:Work
         rdf:about="">
        <dc:format>image/svg+xml</dc:format>
        <dc:type
           rdf:resource="http://purl.org/dc/dcmitype/StillImage" />
        <dc:title></dc:title>
      </cc:Work>
    </rdf:RDF>
  </metadata>
  <g
     inkscape:label="Capa 1"
     inkscape:groupmode="layer"
     id="layer1">
    <path
       id="path12"
       transform="scale(0.26458333)"
       style="stroke-width:0.99999994"
       d="m 192.60547,464.83398 c -0.14756,0.22631 -0.29382,0.45341 -0.44141,0.67969 0.20994,-0.0753 0.41897,-0.1532 0.62891,-0.22851 -0.0692,-0.14741 -0.12642,-0.30001 -0.1875,-0.45118 z m 261.5332,19.01563 c -0.39824,3.26855 -0.86607,6.5304 -1.3125,9.79492 1.08978,-0.005 2.17975,-0.008 3.26953,-0.0137 -0.4946,-2.86098 -1.03922,-5.71656 -1.66211,-8.56055 -0.0752,-0.3434 -0.1874,-0.78979 -0.29492,-1.2207 z m -248.71484,39.48437 -1.64844,1.15821 c 2.35734,-0.0516 4.8065,-0.0922 7.18359,-0.14063 -1.84462,-0.34208 -3.68739,-0.69215 -5.53515,-1.01758 z" />
    <path
       style="fill:#800080;stroke-width:0.26458332"
       id="path102"
       d="m 30.82436,57.43713 c 0.96212,10.367354 2.539373,20.664271 3.923758,30.980465 1.690666,9.520359 2.731124,19.176565 4.839853,28.618695 0.773996,3.33877 1.583788,6.6963 3.275677,9.69789 0.800446,1.11994 1.523582,2.17797 2.882516,2.58843 2.330476,0.44311 4.733703,0.37343 7.097165,0.39027 0.590706,-0.0718 1.217491,2.7e-4 1.772121,-0.21527 0.699304,-0.2718 2.578412,-1.52556 1.897306,-1.21092 -2.375766,1.09747 -4.434637,3.02232 -6.994628,3.56561 -1.154301,0.24496 1.684125,-1.66263 2.410306,-2.59272 2.097045,-2.68591 3.027378,-4.73099 4.655513,-7.74589 5.007748,-10.12586 7.585152,-21.14466 9.674188,-32.176089 1.887111,-9.666052 3.020221,-19.453627 4.353885,-29.205364 0.454853,-5.055669 1.525172,-10.151279 1.35399,-15.249176 3.101787,-1.026996 6.123704,-3.824533 9.305361,-3.080988 1.668558,0.389941 -1.103326,3.244654 -1.63567,4.873379 -0.853993,2.612806 -1.671524,5.237422 -2.523263,7.850963 C 73.03694,67.032009 68.96333,79.535617 64.78898,92.00871 c -7.924572,22.71622 -16.413355,45.24232 -23.523548,68.23603 -1.167093,3.77428 -2.240359,7.57693 -3.360539,11.36539 -3.39602,11.66661 -6.15769,23.50228 -8.060333,35.50179 0,0 -9.662352,4.71468 -9.662352,4.71468 v 0 c 2.314943,-12.17098 5.338966,-24.18652 8.919992,-36.04854 1.150152,-3.81164 2.248033,-7.63945 3.450461,-11.43492 7.287432,-23.00287 15.983405,-45.52535 23.772703,-68.356126 3.995624,-12.313274 7.888783,-24.650607 11.52238,-37.076583 0.745212,-2.548438 1.459383,-5.106038 2.152681,-7.669088 0.429604,-1.588199 0.02817,-3.645101 1.215777,-4.783754 3.036337,-2.911189 7.146165,-4.439571 10.719249,-6.659353 -0.116173,5.222136 -1.056936,10.405731 -1.662051,15.581899 -1.443189,9.784554 -2.580783,19.61987 -4.494644,29.328875 -2.099887,11.082855 -4.618093,22.1462 -9.437351,32.41347 -1.288714,2.52474 -4.335804,8.95527 -6.6835,10.65405 -3.751,2.7142 -7.77155,5.03886 -11.747333,7.41163 -1.817431,1.08466 -2.165884,0.91341 -4.068955,1.05233 -2.479567,-0.0275 -5.061051,0.13434 -7.441206,-0.67366 -1.446167,-0.73176 -2.402612,-1.88797 -3.254441,-3.25324 -1.670968,-3.15899 -2.458648,-6.64116 -3.163292,-10.12854 C 28.075789,112.62516 27.20985,102.8896 25.479977,93.295953 24.120997,83.063537 22.566584,72.857346 20.9421,62.663916 c 0,0 9.88226,-5.226786 9.88226,-5.226786 z"
       inkscape:connector-curvature="0" />
    <path
       style="fill:#008000;stroke-width:0.26458332"
       id="path104"
       d="m 48.447536,204.73936 c 4.374327,-4.06202 6.992003,-9.55396 9.680628,-14.78447 3.918614,-7.75818 6.424824,-16.09559 8.832278,-24.41347 2.894566,-9.16999 6.563413,-18.07923 10.236602,-26.95977 3.367792,-8.23528 7.571015,-16.10926 11.836397,-23.90899 1.480834,-2.60753 2.991118,-5.19902 4.534665,-7.77001 0.101756,-0.16949 1.26269,-2.31035 1.833647,-2.57438 3.496572,-1.61691 7.114347,-2.95766 10.671527,-4.436487 0.21441,0.811517 0.50829,1.606107 0.64323,2.434557 0.339,2.08118 0.48554,6.45801 0.54365,8.34441 0.19462,6.31737 0.17563,12.64161 0.20338,18.96107 0.0264,11.70691 0.072,23.41376 0.1596,35.12038 0.0215,3.01654 0.0603,6.03291 0.10281,9.04921 0.0201,1.42858 0.0888,2.74695 -0.21912,4.14001 -2.37962,3.97136 -0.96741,1.88743 -10.999851,5.96987 -0.377151,0.15347 -0.766935,-0.29977 -1.095719,-0.53997 -1.896319,-1.3854 -3.349967,-3.67493 -4.791898,-5.46763 -4.929756,-5.88833 -9.814311,-11.87732 -15.372128,-17.19799 -1.161163,-1.11162 -2.392418,-2.14763 -3.588628,-3.22144 -4.874003,-4.38672 -10.323044,-7.61285 -16.140684,-10.52955 -1.901333,-0.83682 -0.983882,-0.47381 -2.744496,-1.10866 0,0 9.266224,-6.21724 9.266224,-6.21724 v 0 c 1.759683,0.74454 0.845894,0.33005 2.73453,1.25844 5.759902,3.12472 11.099754,6.50706 15.966056,10.96541 1.212236,1.09217 2.463104,2.14292 3.636706,3.27649 5.560549,5.37093 10.44372,11.41201 15.605349,17.15189 0.406349,0.46899 2.828469,3.31483 3.529389,3.96593 0.35969,0.33413 0.75039,0.64717 1.18655,0.87252 0.27698,0.1431 1.16823,0.0349 0.9111,0.21125 -7.949935,5.45102 -12.57465,5.35334 -8.286702,5.33226 0.794774,-1.26412 0.560107,-2.35905 0.585938,-3.86154 0.05256,-3.05681 0.103172,-6.11366 0.135756,-9.17077 0.128965,-11.7533 0.227658,-23.50765 0.1403,-35.26166 -0.06023,-5.17421 -0.06924,-8.08801 -0.223483,-13.20919 -0.135707,-4.50577 -0.208777,-9.11126 -0.959128,-13.57084 -0.100049,-0.59463 -0.291414,-1.17024 -0.437123,-1.75536 3.074649,-1.8835 6.164942,-3.74169 9.223942,-5.65049 0.33435,-0.20863 -0.77463,0.26399 -1.04744,0.54841 -0.47436,0.49454 -0.76263,1.13898 -1.12748,1.71904 -1.61835,2.57291 -3.14177,5.20645 -4.713323,7.80769 -4.349125,7.75982 -8.582093,15.63547 -12.004376,23.85149 -3.658354,8.84021 -7.325352,17.70252 -10.229196,26.8245 -2.403419,8.36062 -4.849246,16.75471 -8.720468,24.58231 -2.589638,5.24091 -5.098891,10.66957 -9.113954,15.00191 0,0 -10.385057,4.22086 -10.385057,4.22086 z"
       inkscape:connector-curvature="0" />
    <path
       style="fill:#008000;stroke-width:0.26458332"
       id="path106"
       d="m 126.83377,75.380071 c 1.4951,16.718857 2.19562,33.495849 2.83715,50.265129 0.68111,19.28662 0.94535,38.58464 1.17503,57.88091 0.17388,7.27737 -0.0443,14.57174 0.50256,21.83748 0.18876,2.50811 0.44914,4.36687 0.75723,6.82561 0,0 -9.66725,5.06541 -9.66725,5.06541 v 0 c -0.25347,-2.43707 -0.49234,-4.49914 -0.63747,-6.96903 -0.43198,-7.35135 -0.12639,-14.71698 -0.14062,-22.07401 0.0559,-19.36249 -0.0271,-38.7285 -0.70622,-58.0814 -0.6776,-16.52837 -1.25679,-33.143298 -4.00959,-49.485179 0,0 9.88918,-5.26492 9.88918,-5.26492 z"
       inkscape:connector-curvature="0" />
    <path
       style="fill:#008000;stroke-width:0.26458332"
       id="path108"
       d="m 102.04399,68.147239 c 5.61868,-0.680723 11.19467,-1.637096 16.79422,-2.454794 7.06106,-0.875805 14.08256,-2.008931 21.15797,-2.780241 2.66188,-0.03649 5.64304,-1.073944 8.23451,-0.0254 0.49243,0.199239 0.93948,0.496059 1.40922,0.74409 3.26366,1.852903 5.81246,4.407564 7.66439,7.654049 2.02816,4.537408 1.78556,9.674185 1.59978,14.531189 -1.11494,10.170419 -4.88574,19.820478 -8.25726,29.411228 -3.37714,9.41046 -6.02782,19.05957 -9.43369,28.45879 -1.53604,4.072 -3.35569,8.0323 -5.87086,11.59294 -1.04025,1.32245 -0.51756,0.67017 -1.56762,1.95719 0,0 -10.27712,4.38218 -10.27712,4.38218 v 0 c 1.04604,-1.29539 0.51057,-0.65456 1.60682,-1.92216 2.70316,-3.45877 4.64753,-7.38256 6.29213,-11.44349 3.62573,-9.38435 6.32595,-19.08243 9.69832,-28.55715 2.83417,-8.12019 6.11776,-16.60608 7.62389,-25.095147 0.22796,-1.284833 0.32498,-2.589482 0.48747,-3.884224 0.13515,-4.632539 0.29274,-9.527198 -1.52584,-13.88414 -1.71489,-3.035419 -4.20152,-5.469477 -7.33015,-7.055455 -0.43084,-0.174334 -0.84578,-0.394801 -1.29253,-0.523005 -2.52883,-0.725704 -5.32486,0.247208 -7.87472,0.204102 -7.02663,0.713351 -13.99811,1.818826 -21.00104,2.72306 -5.69764,0.878285 -11.3974,1.769102 -17.074416,2.762589 0,0 8.936526,-6.796201 8.936526,-6.796201 z"
       inkscape:connector-curvature="0" />
    <path
       style="fill:#668000;stroke-width:0.26458332"
       id="path110"
       d="m 169.0446,123.66351 c -0.31537,9.60072 -0.31108,19.20991 -0.34673,28.81495 0.20691,11.56742 -0.72322,23.10541 -1.39972,34.64247 -0.25731,4.48556 -0.46087,8.97488 -0.53219,13.4675 -0.15836,1.27167 -0.11714,1.21898 -0.39612,2.42596 -0.0614,0.26565 -0.007,0.97194 -0.21063,0.79037 -0.33484,-0.29892 0.0638,-1.45121 -0.35807,-1.29806 -2.90557,1.0547 -5.29509,3.24905 -8.16686,4.39256 -0.88959,0.35422 1.39233,-1.31482 2.08851,-1.97224 8.39065,-7.76246 17.27387,-14.96135 26.24404,-22.03642 3.75086,-2.96557 7.56153,-5.85699 11.12152,-9.05245 0,0 10.2233,-4.17098 10.2233,-4.17098 v 0 c -3.67731,3.30917 -7.65232,6.25333 -11.54544,9.30102 -8.88953,6.95342 -17.70389,14.0169 -25.91299,21.77617 -4.3153,4.37175 -4.18676,4.54463 -12.8733,8.8114 -0.41828,0.20546 -0.81639,-0.55328 -0.99231,-0.98481 -0.0967,-0.23727 0.22356,-0.46286 0.30281,-0.70651 0.20556,-0.63198 0.38375,-1.58892 0.51669,-2.2326 0.15215,-4.57292 0.52977,-9.13302 0.87608,-13.69449 0.90594,-11.54972 1.9568,-23.11544 1.70227,-34.71398 -0.0353,-9.48721 -0.0279,-18.97887 -0.34674,-28.46161 0,0 10.00588,-5.09825 10.00588,-5.09825 z"
       inkscape:connector-curvature="0" />
    <path
       style="fill:#000080;stroke-width:2.85714293"
       d="m 201.8136,752.23326 c 5.49922,-8.17183 14.92088,-25.20755 20.93701,-37.85715 13.16603,-27.68311 44.48446,-124.46146 41.08753,-126.96625 -12.52537,-9.23581 -45.63318,-29.92078 -52.53578,-32.82311 l -8.70205,-3.65894 15.79875,-10.48978 c 8.68931,-5.76937 16.84193,-10.48977 18.11694,-10.48977 1.27501,0 11.55918,5.69744 22.85371,12.66099 11.29453,6.96354 21.05505,11.78497 21.69004,10.71428 0.63499,-1.07068 5.91866,-13.51813 11.74148,-27.66099 12.69615,-30.83722 36.32104,-77.33372 55.00602,-108.25817 13.02666,-21.55969 14.40929,-22.85476 31.6706,-29.665 13.69137,-5.40177 18.8494,-6.321 21.36318,-3.80722 4.61924,4.61924 6.9125,282.58142 2.40092,291.01136 -3.53996,6.61449 -26.84328,15.63623 -33.64591,13.0258 -2.45216,-0.94097 -5.40785,-0.17485 -6.56822,1.70278 -1.39891,2.26348 -5.84073,-1.2062 -13.18316,-10.29795 -24.33201,-30.12898 -59.43679,-69.35756 -60.82461,-67.96974 -0.80965,0.80964 -6.35289,16.34285 -12.31833,34.51823 -11.81077,35.98483 -32.00513,79.54194 -45.54166,98.2286 -7.47411,10.31768 -27.78746,22.93988 -36.91801,22.93988 -1.33488,0 2.07232,-6.68602 7.57155,-14.85785 z M 371.42857,535.66254 c 0,-69.91393 -1.00946,-108.57143 -2.83512,-108.57143 -5.98057,0 -65.73631,130.70398 -65.73631,143.7853 0,2.25935 4.25905,7.35645 9.46456,11.32688 5.20551,3.97044 20.26252,19.55161 33.46003,34.62483 13.1975,15.07322 24.36702,27.40585 24.82115,27.40585 0.45413,0 0.82569,-48.85714 0.82569,-108.57143 z"
       id="path112"
       inkscape:connector-curvature="0"
       transform="scale(0.26458333)" />
    <path
       style="fill:none;stroke-width:2.85714293"
       d="M 461.84782,796.66003 C 460.83152,784.63723 460,717.3994 460,647.24266 c 0,-70.15675 -1.31873,-154.49849 -2.9305,-187.42607 -2.75744,-56.33265 -9.94206,-140.37928 -12.81131,-149.86833 -0.88467,-2.92575 4.18783,-7.14866 15.98521,-13.30783 11.16946,-5.83136 17.65427,-7.85227 18.33625,-5.71429 2.47672,7.76436 12.48787,215.45139 12.89883,267.59355 0.0887,11.25471 0.8894,14.4042 2.82142,11.09788 5.61468,-9.60854 62.90533,-183.94772 67.06344,-204.0784 8.50364,-41.16875 4.36351,-71.67473 -12.0163,-88.54048 -17.2812,-17.79388 -23.10085,-19.01179 -66.96384,-14.01387 -40.0561,4.56415 -108.3983,14.7235 -118.07508,17.55235 -4.8348,1.41337 -5.14778,1.00831 -2.07847,-2.68997 1.98737,-2.39464 8.42485,-7.68822 14.30551,-11.76352 9.22466,-6.3927 18.92105,-8.6043 70.6499,-16.11422 32.97679,-4.78752 72.17208,-9.47845 87.10065,-10.42429 l 27.14286,-1.71971 13.66723,12.10283 c 17.54545,15.53714 22.04349,24.5831 24.03487,48.33633 2.49279,29.73395 -2.62761,51.23754 -36.79898,154.54078 -37.81377,114.31457 -47.94301,136.84343 -64.32716,143.07269 l -7.03811,2.67588 1.72282,79.26857 c 0.94755,43.59772 2.41126,89.06835 3.25268,101.04586 l 1.52987,21.77731 -15.83547,8.93698 c -8.70951,4.91534 -16.30914,8.937 -16.88808,8.937 -0.57893,0 -1.88412,-9.83683 -2.90042,-21.85966 z"
       id="path114"
       inkscape:connector-curvature="0"
       transform="scale(0.26458333)" />
    <path
       style="fill:none;stroke-width:2.85714293;stroke:none;stroke-opacity:1"
       d="m 202.82133,752.09111 c 16.41108,-27.32962 29.26762,-57.32817 44.38786,-103.57142 21.10754,-64.55462 20.62053,-59.26096 6.3272,-68.77438 -6.6593,-4.43234 -20.25623,-12.83985 -30.2154,-18.68336 l -18.10758,-10.62457 15.11998,-10.18239 15.11998,-10.18239 20.71016,11.3664 c 11.39059,6.25152 21.86356,11.3664 23.27326,11.3664 1.40971,0 6.1739,-8.67857 10.5871,-19.28571 12.2201,-29.37106 48.19022,-99.92239 61.23417,-120.10392 9.19807,-14.2312 14.32598,-19.12518 24.69769,-23.57102 17.07157,-7.31772 23.04599,-7.12257 25.03546,0.81779 2.80429,11.19244 5.64631,222.21602 3.42629,254.40534 -2.44417,35.43926 -4.02519,37.64181 -29.96283,41.74201 l -14.74604,2.33102 -33.28487,-38.16775 c -18.30668,-20.99227 -34.63398,-38.16589 -36.28289,-38.16361 -1.64891,0.002 -7.83501,14.23922 -13.74689,31.63763 -13.99059,41.17368 -35.71097,86.98451 -47.73543,100.67962 -8.14434,9.27589 -27.24618,21.96431 -33.06628,21.96431 -0.97803,0 2.27505,-6.75 7.22906,-15 z M 368.6703,428.90427 c -4.47067,-4.47067 -65.81316,126.41732 -65.81316,140.42718 0,2.19288 15.10715,19.81571 33.57143,39.16185 L 370,643.66811 370.7496,537.70064 c 0.47507,-67.15907 -0.28643,-107.0035 -2.0793,-108.79637 z"
       id="path116"
       inkscape:connector-curvature="0"
       transform="scale(0.26458333)" />
    <path
       style="fill:#ff0000;stroke-width:2.85714293"
       d=""
       id="path118"
       inkscape:connector-curvature="0"
       transform="scale(0.26458333)" />
    <path
       style="fill:#800080;stroke-width:2.85714293"
       d=""
       id="path120"
       inkscape:connector-curvature="0"
       transform="scale(0.26458333)" />
    <path
       style="fill:none;stroke-width:2.85714293"
       d="m 212.85797,734.94826 c 15.63606,-30.11272 36.04738,-83.51608 47.09546,-123.21866 7.41802,-26.6575 8.86557,-24.1744 -26.79376,-45.96158 l -24.67457,-15.0757 9.32888,-7.00305 c 16.30052,-12.23655 16.05341,-12.23196 39.62934,-0.73738 12.33528,6.01414 22.8796,10.37008 23.43183,9.67987 0.55224,-0.69021 15.38688,-30.1835 32.96589,-65.54065 17.57901,-35.35714 36.52815,-70.4945 42.10922,-78.08302 10.1938,-13.86041 23.57117,-21.91698 36.39164,-21.91698 6.47809,0 6.90087,1.1526 8.64607,23.57143 2.38446,30.63078 2.42179,244.37975 0.0448,256.26493 -2.28886,11.44427 -9.95454,16.50956 -28.17559,18.6177 l -14.28571,1.65283 -32.47893,-37.32237 c -17.8634,-20.5273 -33.93483,-36.8525 -35.71428,-36.27821 -1.77945,0.57429 -7.44189,11.88103 -12.58321,25.12607 -18.9083,48.71151 -32.44689,78.99117 -41.43649,92.67451 -8.41748,12.81249 -30.56943,32.83597 -36.3264,32.83597 -1.30944,0 4.46219,-13.17857 12.82584,-29.28571 z M 369.93625,430.18042 c -2.2187,-5.78183 -6.13359,0.43284 -27.88779,44.27036 -26.03305,52.45994 -40.22685,88.14327 -38.21219,96.06572 0.91955,3.61604 16.18257,21.91066 33.91782,40.65471 L 370,645.25131 370.75021,539.75395 c 0.41262,-58.02355 0.0463,-107.33164 -0.81396,-109.57353 z"
       id="path122"
       inkscape:connector-curvature="0"
       transform="scale(0.26458333)" />
    <path
       style="fill:none;stroke-width:2.85714293;fill-opacity:1"
       d="m 592.94927,777.8054 c 5.75497,-49.51287 9.90787,-136.37359 9.90787,-207.22982 V 487.17337 L 620,478.51969 l 17.14286,-8.65369 -0.0457,66.4697 c -0.0251,36.55833 -1.93276,99.16921 -4.23919,139.13527 -2.30642,39.96607 -3.63351,73.22556 -2.94908,73.90999 1.51252,1.51253 2.4764,0.77499 66.04529,-50.53563 45.47664,-36.70718 67.88622,-51.72333 71.61917,-47.99038 0.68279,0.6828 -19.06331,17.30687 -43.88024,36.94239 -24.81693,19.63552 -57.79932,47.48815 -73.29419,61.89475 -23.04459,21.42605 -49.89019,40.25617 -57.39215,40.25617 -0.80789,0 -0.83377,-5.46429 -0.0575,-12.14286 z"
       id="path124"
       inkscape:connector-curvature="0"
       transform="scale(0.26458333)" />
    <path
       style="fill:none;fill-opacity:1;stroke-width:2.85714293;stroke:none"
       d="m 80.225377,787.92303 c 8.417747,-46.59157 45.336823,-175.91706 68.180013,-238.8308 12.62552,-34.77272 12.66157,-36.2624 0.88032,-36.37769 -17.50676,-0.17131 -25.76292,-11.86885 -33.38745,-47.30423 -5.9626,-27.71145 -35.680175,-226.77125 -34.045061,-228.04696 7.874516,-6.14366 33.861091,-17.49398 33.861091,-14.78972 0,8.95145 15.36224,119.95423 23.08503,166.80526 11.32126,68.68142 22.88808,104.65694 30.9077,96.13008 8.14891,-8.66431 97.25525,-282.5767 97.5267,-299.79653 0.13637,-8.65029 5.52855,-14.17202 21.98103,-22.50912 8.18455,-4.14743 15.5666,-7.54078 16.40455,-7.54078 3.05515,0 1.34558,18.78785 -7.232,79.47858 -10.01841,70.88535 -22.23141,132.41855 -32.77014,165.10698 -10.94702,33.95485 -31.8072,74.39687 -42.6336,82.65459 -9.56095,7.29248 -14.61175,9.13437 -11.57521,4.22114 1.02021,-1.65072 -0.19655,-2.07914 -2.92809,-1.03094 -3.34563,1.28382 -3.70636,2.39128 -1.26948,3.89734 2.19638,1.35743 -0.76158,4.4452 -8.33691,8.70277 -11.64945,6.54737 -11.8622,6.96829 -27.25724,53.92706 -27.98592,85.36417 -51.53182,173.54705 -57.49253,215.31803 -1.89605,13.287 -2.47147,13.96451 -18.905653,22.26045 l -16.950082,8.5564 z M 208.70857,471.32126 c 13.84505,-24.75726 27.59154,-63.92125 36.70535,-104.57416 14.12233,-62.99388 12.09911,-58.59432 -37.93313,82.48687 -7.94127,22.39286 -13.25751,40.71429 -11.81385,40.71429 1.44365,0 7.31239,-8.38215 13.04163,-18.627 z"
       id="path4634"
       inkscape:connector-curvature="0"
       transform="scale(0.26458333)" />
  </g>
</svg>
